<?xml version="1.0" standalone="no"?><!DOCTYPE svg PUBLIC "-//W3C//DTD SVG 1.1//EN" "http://www.w3.org/Graphics/SVG/1.1/DTD/svg11.dtd"><svg t="1658454543630" class="icon" viewBox="0 0 1024 1024" version="1.1" xmlns="http://www.w3.org/2000/svg" p-id="1288" width="48" height="48" xmlns:xlink="http://www.w3.org/1999/xlink"><defs><style type="text/css">@font-face { font-family: feedback-iconfont; src: url("//at.alicdn.com/t/font_1031158_u69w8yhxdu.woff2?t=1630033759944") format("woff2"), url("//at.alicdn.com/t/font_1031158_u69w8yhxdu.woff?t=1630033759944") format("woff"), url("//at.alicdn.com/t/font_1031158_u69w8yhxdu.ttf?t=1630033759944") format("truetype"); }
</style></defs><path d="M502.044444 95.288889c-227.555556 0-412.444444 184.888889-412.444444 412.444444s184.888889 412.444444 412.444444 412.444445 412.444444-184.888889 412.444445-412.444445-184.888889-412.444444-412.444445-412.444444z m-117.191111 287.288889c3.697778-58.88 51.484444-106.097778 110.364445-109.795556a118.044444 118.044444 0 0 1 124.586666 117.76c0 64.853333-52.906667 117.76-117.76 117.76-67.982222 0.284444-121.742222-57.173333-117.191111-125.724444z m352.711111 341.048889c0 11.093333-8.817778 19.911111-19.911111 19.911111H287.004444c-11.093333 0-19.911111-8.817778-19.911111-19.911111v-58.88c0-77.937778 157.013333-117.76 234.951111-117.76s234.951111 38.968889 234.951112 117.76l0.568888 58.88z m0 0" p-id="1289"></path></svg>